HIERARCHY
ROOT Hips
{
  OFFSET 1.53123 91.784 0.210406
  CHANNELS 6 Xposition Yposition Zposition Zrotation Xrotation Yrotation
  JOINT Spine
  {
    OFFSET 0 9.9235 -1.2273
    CHANNELS 6 Xposition Yposition Zposition Zrotation Xrotation Yrotation
    JOINT Spine1
    {
      OFFSET -0.0001 11.6454 -1.4223
      CHANNELS 6 Xposition Yposition Zposition Zrotation Xrotation Yrotation
      JOINT Spine2
      {
        OFFSET 0.0001 13.3602 -1.6265
        CHANNELS 6 Xposition Yposition Zposition Zrotation Xrotation Yrotation
        JOINT Neck
        {
          OFFSET 0 15.0325 0.7929
          CHANNELS 6 Xposition Yposition Zposition Zrotation Xrotation Yrotation
          JOINT Head
          {
            OFFSET 0 10.3218 3.1424
            CHANNELS 6 Xposition Yposition Zposition Zrotation Xrotation Yrotation
            JOINT HeadTop_End
            {
              OFFSET 0.0002 18.4747 6.6364
              CHANNELS 6 Xposition Yposition Zposition Zrotation Xrotation Yrotation
              End Site
              {
                OFFSET 0 0 0
              }
            }
            JOINT LeftEye
            {
              OFFSET 2.9479 7.6817 9.1207
              CHANNELS 6 Xposition Yposition Zposition Zrotation Xrotation Yrotation
              End Site
              {
                OFFSET 0 0 0
              }
            }
            JOINT RightEye
            {
              OFFSET -2.9445 7.6817 9.1205
              CHANNELS 6 Xposition Yposition Zposition Zrotation Xrotation Yrotation
              End Site
              {
                OFFSET 0 0 0
              }
            }
          }
        }
        JOINT LeftShoulder
        {
          OFFSET 6.1058 9.1104 0.7056
          CHANNELS 6 Xposition Yposition Zposition Zrotation Xrotation Yrotation
          JOINT LeftArm
          {
            OFFSET 12.655 -0.2659 -2.6009
            CHANNELS 6 Xposition Yposition Zposition Zrotation Xrotation Yrotation
            JOINT LeftForeArm
            {
              OFFSET 27.4047 0 0
              CHANNELS 6 Xposition Yposition Zposition Zrotation Xrotation Yrotation
              JOINT LeftHand
              {
                OFFSET 27.6145 0 0
                CHANNELS 6 Xposition Yposition Zposition Zrotation Xrotation Yrotation
                JOINT LeftHandMiddle1
                {
                  OFFSET 12.7755 0 0
                  CHANNELS 6 Xposition Yposition Zposition Zrotation Xrotation Yrotation
                  JOINT LeftHandMiddle2
                  {
                    OFFSET 3.614 0 0
                    CHANNELS 6 Xposition Yposition Zposition Zrotation Xrotation Yrotation
                    JOINT LeftHandMiddle3
                    {
                      OFFSET 3.4598 0 0
                      CHANNELS 6 Xposition Yposition Zposition Zrotation Xrotation Yrotation
                      End Site
                      {
                        OFFSET 3.6802 0 0
                      }
                    }
                  }
                }
                JOINT LeftHandThumb1
                {
                  OFFSET 3.7888 -2.167 3.0031
                  CHANNELS 6 Xposition Yposition Zposition Zrotation Xrotation Yrotation
                  JOINT LeftHandThumb2
                  {
                    OFFSET 3.6754 -2.122 2.122
                    CHANNELS 6 Xposition Yposition Zposition Zrotation Xrotation Yrotation
                    JOINT LeftHandThumb3
                    {
                      OFFSET 3.3944 -1.9597 1.9598
                      CHANNELS 6 Xposition Yposition Zposition Zrotation Xrotation Yrotation
                      End Site
                      {
                        OFFSET 2.6794 -1.5469 1.5469
                      }
                    }
                  }
                }
                JOINT LeftHandIndex1
                {
                  OFFSET 12.2666 -0.2317 2.8221
                  CHANNELS 6 Xposition Yposition Zposition Zrotation Xrotation Yrotation
                  JOINT LeftHandIndex2
                  {
                    OFFSET 3.892 0 0
                    CHANNELS 6 Xposition Yposition Zposition Zrotation Xrotation Yrotation
                    JOINT LeftHandIndex3
                    {
                      OFFSET 3.4152 0 0
                      CHANNELS 6 Xposition Yposition Zposition Zrotation Xrotation Yrotation
                      End Site
                      {
                        OFFSET 3.078 0 0
                      }
                    }
                  }
                }
                JOINT LeftHandRing1
                {
                  OFFSET 12.147 0.0099 -2.2166
                  CHANNELS 6 Xposition Yposition Zposition Zrotation Xrotation Yrotation
                  JOINT LeftHandRing2
                  {
                    OFFSET 3.6012 0 0
                    CHANNELS 6 Xposition Yposition Zposition Zrotation Xrotation Yrotation
                    JOINT LeftHandRing3
                    {
                      OFFSET 3.3073 0 0
                      CHANNELS 6 Xposition Yposition Zposition Zrotation Xrotation Yrotation
                      End Site
                      {
                        OFFSET 3.6601 0 0
                      }
                    }
                  }
                }
                JOINT LeftHandPinky1
                {
                  OFFSET 10.9082 -0.2264 -4.7258
                  CHANNELS 6 Xposition Yposition Zposition Zrotation Xrotation Yrotation
                  JOINT LeftHandPinky2
                  {
                    OFFSET 4.1367 0 0
                    CHANNELS 6 Xposition Yposition Zposition Zrotation Xrotation Yrotation
                    JOINT LeftHandPinky3
                    {
                      OFFSET 2.5948 0 0
                      CHANNELS 6 Xposition Yposition Zposition Zrotation Xrotation Yrotation
                      End Site
                      {
                        OFFSET 2.9239 0 0
                      }
                    }
                  }
                }
              }
            }
          }
        }
        JOINT RightShoulder
        {
          OFFSET -6.1057 9.1105 0.7056
          CHANNELS 6 Xposition Yposition Zposition Zrotation Xrotation Yrotation
          JOINT RightArm
          {
            OFFSET -12.655 -0.266 -2.6009
            CHANNELS 6 Xposition Yposition Zposition Zrotation Xrotation Yrotation
            JOINT RightForeArm
            {
              OFFSET -27.4047 0 0
              CHANNELS 6 Xposition Yposition Zposition Zrotation Xrotation Yrotation
              JOINT RightHand
              {
                OFFSET -27.6145 0 0
                CHANNELS 6 Xposition Yposition Zposition Zrotation Xrotation Yrotation
                JOINT RightHandMiddle1
                {
                  OFFSET -12.7755 0 0
                  CHANNELS 6 Xposition Yposition Zposition Zrotation Xrotation Yrotation
                  JOINT RightHandMiddle2
                  {
                    OFFSET -3.614 0 0
                    CHANNELS 6 Xposition Yposition Zposition Zrotation Xrotation Yrotation
                    JOINT RightHandMiddle3
                    {
                      OFFSET -3.4598 0 0
                      CHANNELS 6 Xposition Yposition Zposition Zrotation Xrotation Yrotation
                      End Site
                      {
                        OFFSET -3.6802 0 0
                      }
                    }
                  }
                }
                JOINT RightHandThumb1
                {
                  OFFSET -3.7888 -2.167 3.0031
                  CHANNELS 6 Xposition Yposition Zposition Zrotation Xrotation Yrotation
                  JOINT RightHandThumb2
                  {
                    OFFSET -3.6754 -2.122 2.122
                    CHANNELS 6 Xposition Yposition Zposition Zrotation Xrotation Yrotation
                    JOINT RightHandThumb3
                    {
                      OFFSET -3.3944 -1.9597 1.9598
                      CHANNELS 6 Xposition Yposition Zposition Zrotation Xrotation Yrotation
                      End Site
                      {
                        OFFSET -2.6794 -1.5469 1.5469
                      }
                    }
                  }
                }
                JOINT RightHandIndex1
                {
                  OFFSET -12.2666 -0.2317 2.8221
                  CHANNELS 6 Xposition Yposition Zposition Zrotation Xrotation Yrotation
                  JOINT RightHandIndex2
                  {
                    OFFSET -3.892 0 0
                    CHANNELS 6 Xposition Yposition Zposition Zrotation Xrotation Yrotation
                    JOINT RightHandIndex3
                    {
                      OFFSET -3.4152 0 0
                      CHANNELS 6 Xposition Yposition Zposition Zrotation Xrotation Yrotation
                      End Site
                      {
                        OFFSET -3.078 0 0
                      }
                    }
                  }
                }
                JOINT RightHandRing1
                {
                  OFFSET -12.147 0.0099 -2.2166
                  CHANNELS 6 Xposition Yposition Zposition Zrotation Xrotation Yrotation
                  JOINT RightHandRing2
                  {
                    OFFSET -3.6012 0 0
                    CHANNELS 6 Xposition Yposition Zposition Zrotation Xrotation Yrotation
                    JOINT RightHandRing3
                    {
                      OFFSET -3.3073 0 0
                      CHANNELS 6 Xposition Yposition Zposition Zrotation Xrotation Yrotation
                      End Site
                      {
                        OFFSET -3.6601 0 0
                      }
                    }
                  }
                }
                JOINT RightHandPinky1
                {
                  OFFSET -10.9082 -0.2264 -4.7258
                  CHANNELS 6 Xposition Yposition Zposition Zrotation Xrotation Yrotation
                  JOINT RightHandPinky2
                  {
                    OFFSET -4.1367 0 0
                    CHANNELS 6 Xposition Yposition Zposition Zrotation Xrotation Yrotation
                    JOINT RightHandPinky3
                    {
                      OFFSET -2.5948 0 0
                      CHANNELS 6 Xposition Yposition Zposition Zrotation Xrotation Yrotation
                      End Site
                      {
                        OFFSET -2.9239 0 0
                      }
                    }
                  }
                }
              }
            }
          }
        }
      }
    }
  }
  JOINT RightUpLeg
  {
    OFFSET -9.1245 -6.6564 -0.0554
    CHANNELS 6 Xposition Yposition Zposition Zrotation Xrotation Yrotation
    JOINT RightLeg
    {
      OFFSET -0.2447 -40.5954 -0.5145
      CHANNELS 6 Xposition Yposition Zposition Zrotation Xrotation Yrotation
      JOINT RightFoot
      {
        OFFSET 0.2447 -42.0479 -2.0602
        CHANNELS 6 Xposition Yposition Zposition Zrotation Xrotation Yrotation
        JOINT RightToeBase
        {
          OFFSET -0.3734 -10.4922 12.6407
          CHANNELS 6 Xposition Yposition Zposition Zrotation Xrotation Yrotation
          End Site
          {
            OFFSET 0 0 9.9925
          }
        }
      }
    }
  }
  JOINT LeftUpLeg
  {
    OFFSET 9.1245 -6.6564 -0.0554
    CHANNELS 6 Xposition Yposition Zposition Zrotation Xrotation Yrotation
    JOINT LeftLeg
    {
      OFFSET 0.2447 -40.5954 -0.517
      CHANNELS 6 Xposition Yposition Zposition Zrotation Xrotation Yrotation
      JOINT LeftFoot
      {
        OFFSET -0.2447 -42.048 -2.0576
        CHANNELS 6 Xposition Yposition Zposition Zrotation Xrotation Yrotation
        JOINT LeftToeBase
        {
          OFFSET 0.3734 -10.4922 12.6407
          CHANNELS 6 Xposition Yposition Zposition Zrotation Xrotation Yrotation
          End Site
          {
            OFFSET 0 0 9.9925
          }
        }
      }
    }
  }
}
MOTION
Frames:	4
Frame Time:	0.0166667
1.97207 90.4553 84.3421 4.35804 8.92552 9.34856 -1.77636e-015 9.9235 -1.2273 -0.853672 2.83373 -1.75513 -0.0001 11.6454 -1.4223 1.27636 6.05369 -3.19379 0.0001 13.3602 -1.6265 1.29802 6.03801 -3.21654 -1.77636e-015 15.0325 0.7929 -1.66295 -2.68228 -1.06965 0 10.3218 3.1424 -5.96961 -10.1651 -0.255614 0.0002 18.4747 6.6364 -9.93923e-017 1.59028e-015 -7.95139e-016 2.9479 7.6817 9.1207 -9.93923e-017 1.59028e-015 -7.95139e-016 -2.9445 7.6817 9.1205 -9.93923e-017 1.59028e-015 -7.95139e-016 6.1058 9.1104 0.7056 -10.8557 0.213824 2.34774 12.655 -0.2659 -2.6009 -41.1369 40.8811 -44.9022 27.4047 0 0 1.74712e-005 -2.6795e-006 -12.2125 27.6145 -1.42109e-014 7.10543e-015 1.74383 -9.67643 -4.45412 12.7755 0 0 0.0159763 -9.03612e-007 -0.00192795 3.614 0 0 -0.0160092 1.08658e-005 0.00194314 3.4598 0 0 -1.92623e-006 -1.30386e-005 1.46072e-005 3.7888 -2.167 3.0031 17.3887 3.38498 5.98719 3.6754 -2.122 2.122 1.59356 5.61382 21.0817 3.3944 -1.9597 1.9598 3.14971 0.475236 8.1848 12.2666 -0.2317 2.8221 -3.66684e-006 2.95452e-006 9.49118e-006 3.892 -1.42109e-014 0 -3.69419e-005 -2.23093e-006 -8.42047e-006 3.4152 0 -1.42109e-014 -2.16977e-006 -3.06123e-006 3.64063e-006 12.147 0.0099 -2.2166 -3.66684e-006 2.95452e-006 9.49118e-006 3.6012 -1.42109e-014 1.42109e-014 -3.24844e-005 -7.71645e-006 6.05701e-006 3.3073 0 0 -2.09109e-006 2.07194e-006 4.8136e-006 10.9082 -0.2264 -4.7258 0.509568 0.0180318 4.05429 4.1367 0 0 -0.509594 0.0180344 -4.05428 2.5948 1.42109e-014 1.42109e-014 -1.60766e-006 -3.95716e-007 3.02371e-006 -6.1057 9.1105 0.7056 11.6581 0.207545 -2.50965 -12.655 -0.266 -2.6009 -12.2555 31.709 92.9989 -27.4047 0 0 1.36542e-007 -2.88362e-006 95.422 -27.6145 0 0 23.1281 -36.9474 5.04656 -12.7755 0 -1.42109e-014 30.3361 -0.956511 -3.52738 -3.614 1.42109e-014 0 22.0435 -0.510502 -2.62038 -3.4598 0 1.42109e-014 11.0246 -0.128776 -1.33483 -3.7888 -2.167 3.0031 -12.6474 -9.88241 -3.99696 -3.6754 -2.122 2.122 -3.47198 -1.14869 -26.5434 -3.3944 -1.9597 1.9598 -3.52349 -4.09633 -9.09948 -12.2666 -0.2317 2.8221 30.3361 -0.956511 -3.52738 -3.892 0 1.42109e-014 22.0435 -0.510502 -2.62038 -3.4152 0 -1.42109e-014 11.0246 -0.128776 -1.33483 -12.147 0.0099 -2.2166 30.3361 -0.956511 -3.52738 -3.6012 0 0 22.0435 -0.510502 -2.62038 -3.3073 0 -1.42109e-014 11.0246 -0.128776 -1.33483 -10.9082 -0.2264 -4.7258 30.3361 -0.956511 -3.52738 -4.1367 0 0 22.0435 -0.510502 -2.62038 -2.5948 7.10543e-015 0 11.0246 -0.128776 -1.33483 -9.1245 -6.6564 -0.0554 -15.4253 -50.3245 -12.8033 -0.2447 -40.5954 -0.5145 -0.153027 31.0179 -7.19267 0.2447 -42.0479 -2.0602 -0.459692 2.2952 0.479066 -0.3734 -10.4922 12.6407 1.03113e-006 -0.00474574 -2.04652e-006 9.1245 -6.6564 -0.0554 1.78874 1.23152 12.3681 0.2447 -40.5954 -0.517 -0.672319 35.553 -5.61098 -0.2447 -42.048 -2.0576 -3.65598 -3.25859 -2.24036 0.3734 -10.4922 12.6407 -1.15487 -46.6482 -0.758224 
1.67285 89.6734 87.4806 3.47446 8.13315 9.43424 0 9.9235 -1.2273 -0.391958 3.01835 -1.68797 -0.0001 11.6454 -1.4223 1.5291 6.33944 -3.26766 0.0001 13.3602 -1.6265 1.54629 6.32661 -3.28605 0 15.0325 0.7929 -1.60218 -2.63066 -1.05042 8.88178e-016 10.3218 3.1424 -5.9941 -10.0838 -0.080683 0.0002 18.4747 6.6364 2.98177e-016 -1.59028e-015 -7.95139e-016 2.9479 7.6817 9.1207 2.98177e-016 -1.59028e-015 -7.95139e-016 -2.9445 7.6817 9.1205 2.98177e-016 -1.59028e-015 -7.95139e-016 6.1058 9.1104 0.7056 -10.858 0.211302 2.36151 12.655 -0.2659 -2.6009 -40.6274 40.7477 -45.1527 27.4047 -1.42109e-014 -7.10543e-015 -1.1531e-005 -1.01156e-005 -12.9898 27.6145 -1.42109e-014 -7.10543e-015 2.54014 -10.3106 -4.79826 12.7755 0 -1.42109e-014 0.0159763 -9.03612e-007 -0.00192795 3.614 0 0 -0.0160092 1.08658e-005 0.00194314 3.4598 0 0 -1.92623e-006 -1.30386e-005 1.46072e-005 3.7888 -2.167 3.0031 17.3887 3.38498 5.98719 3.6754 -2.122 2.122 1.59356 5.61382 21.0817 3.3944 -1.9597 1.9598 3.14971 0.475236 8.1848 12.2666 -0.2317 2.8221 -3.66684e-006 2.95452e-006 9.49118e-006 3.892 -1.42109e-014 0 -3.69419e-005 -2.23093e-006 -8.42047e-006 3.4152 0 0 -2.16977e-006 -3.06123e-006 3.64063e-006 12.147 0.0099 -2.2166 -3.66684e-006 2.95452e-006 9.49118e-006 3.6012 0 0 -3.24844e-005 -7.71646e-006 6.05701e-006 3.3073 0 0 -2.09109e-006 2.07194e-006 4.8136e-006 10.9082 -0.2264 -4.7258 0.509568 0.0180318 4.05429 4.1367 0 0 -0.509594 0.0180344 -4.05428 2.5948 1.42109e-014 0 -1.60766e-006 -3.95716e-007 3.02371e-006 -6.1057 9.1105 0.7056 11.7112 0.213338 -2.48842 -12.655 -0.266 -2.6009 -12.1341 31.5789 92.8691 -27.4047 2.84217e-014 1.77636e-015 -1.53281e-005 1.45208e-006 95.4607 -27.6145 0 7.10543e-015 23.5592 -36.7677 5.24854 -12.7755 0 1.42109e-014 30.3361 -0.956511 -3.52738 -3.614 0 -1.42109e-014 22.0435 -0.510467 -2.62039 -3.4598 0 1.42109e-014 11.0246 -0.128801 -1.33481 -3.7888 -2.167 3.0031 -12.6474 -9.88241 -3.99696 -3.6754 -2.122 2.122 -3.47198 -1.14869 -26.5434 -3.3944 -1.9597 1.9598 -3.52349 -4.09633 -9.09948 -12.2666 -0.2317 2.8221 30.3361 -0.956511 -3.52738 -3.892 0 -1.42109e-014 22.0435 -0.510467 -2.62039 -3.4152 7.10543e-015 1.42109e-014 11.0246 -0.128801 -1.33481 -12.147 0.0099 -2.2166 30.3361 -0.956511 -3.52738 -3.6012 0 0 22.0435 -0.510467 -2.62039 -3.3073 0 1.42109e-014 11.0246 -0.128801 -1.33481 -10.9082 -0.2264 -4.7258 30.3361 -0.956511 -3.52738 -4.1367 0 1.42109e-014 22.0435 -0.510467 -2.62039 -2.5948 -7.10543e-015 0 11.0246 -0.128801 -1.33481 -9.1245 -6.6564 -0.0554 -13.5038 -50.6548 -10.8939 -0.2447 -40.5954 -0.5145 -0.190513 34.5211 -7.62626 0.2447 -42.0479 -2.0602 0.0546623 5.60764 0.449669 -0.3734 -10.4922 12.6407 1.57113e-006 -0.00323045 4.96694e-006 9.1245 -6.6564 -0.0554 4.27692 1.35084 12.5716 0.2447 -40.5954 -0.517 -0.636327 38.4829 -4.41637 -0.2447 -42.048 -2.0576 -4.70055 4.08322 -2.67429 0.3734 -10.4922 12.6407 -1.91839 -56.8481 -1.38015 
1.385 89.1137 90.6617 2.667 7.37465 9.51073 -1.77636e-015 9.9235 -1.2273 -0.0865005 3.19575 -1.64213 -0.0001 11.6454 -1.4223 1.77674 6.62713 -3.35271 0.0001 13.3602 -1.6265 1.79043 6.61647 -3.36782 0 15.0325 0.7929 -1.51979 -2.57306 -1.02734 8.88178e-016 10.3218 3.1424 -5.9679 -10.1796 0.116147 0.0002 18.4747 6.6364 6.95746e-016 -4.77083e-015 -3.97569e-016 2.9479 7.6817 9.1207 6.95746e-016 -4.77083e-015 -3.97569e-016 -2.9445 7.6817 9.1205 6.95746e-016 -4.77083e-015 -3.97569e-016 6.1058 9.1104 0.7056 -10.8385 0.20677 2.38329 12.655 -0.2659 -2.6009 -39.5418 40.6204 -45.8144 27.4047 0 0 -6.2221e-006 -9.09467e-007 -14.2013 27.6145 0 7.10543e-015 3.44677 -11.6008 -5.09054 12.7755 0 -1.42109e-014 0.0159763 -9.03612e-007 -0.00192795 3.614 1.42109e-014 -1.42109e-014 -0.0160092 1.08658e-005 0.00194314 3.4598 0 0 -1.92623e-006 -1.30386e-005 1.46072e-005 3.7888 -2.167 3.0031 17.3887 3.38498 5.98719 3.6754 -2.122 2.122 1.59356 5.61382 21.0817 3.3944 -1.9597 1.9598 3.14971 0.475236 8.1848 12.2666 -0.2317 2.8221 -3.66684e-006 2.95452e-006 9.49118e-006 3.892 -1.42109e-014 -1.42109e-014 -3.69419e-005 -2.23093e-006 -8.42047e-006 3.4152 -1.42109e-014 1.42109e-014 -2.16977e-006 -3.06123e-006 3.64063e-006 12.147 0.0099 -2.2166 -3.66684e-006 2.95452e-006 9.49118e-006 3.6012 -1.42109e-014 1.42109e-014 -3.24844e-005 -7.71645e-006 6.05701e-006 3.3073 1.42109e-014 -1.42109e-014 -2.09109e-006 2.07194e-006 4.8136e-006 10.9082 -0.2264 -4.7258 0.509568 0.0180318 4.05429 4.1367 0 1.42109e-014 -0.509594 0.0180344 -4.05428 2.5948 -1.42109e-014 0 -1.60766e-006 -3.95716e-007 3.02371e-006 -6.1057 9.1105 0.7056 11.7787 0.220659 -2.46134 -12.655 -0.266 -2.6009 -12.0993 31.4198 92.9117 -27.4047 0 0 -1.51058e-005 -3.05224e-006 95.7401 -27.6145 0 0 23.873 -36.5732 5.11701 -12.7755 -1.42109e-014 0 30.3361 -0.956511 -3.52738 -3.614 0 0 22.0435 -0.510431 -2.62039 -3.4598 0 -1.42109e-014 11.0246 -0.12884 -1.33483 -3.7888 -2.167 3.0031 -12.6474 -9.88241 -3.99696 -3.6754 -2.122 2.122 -3.47198 -1.14869 -26.5434 -3.3944 -1.9597 1.9598 -3.52349 -4.09633 -9.09948 -12.2666 -0.2317 2.8221 30.3361 -0.956511 -3.52738 -3.892 0 1.42109e-014 22.0435 -0.510431 -2.62039 -3.4152 0 0 11.0246 -0.12884 -1.33483 -12.147 0.0099 -2.2166 30.3361 -0.956511 -3.52738 -3.6012 0 -1.42109e-014 22.0435 -0.510431 -2.62039 -3.3073 1.42109e-014 -1.42109e-014 11.0246 -0.12884 -1.33483 -10.9082 -0.2264 -4.7258 30.3361 -0.956511 -3.52738 -4.1367 0 0 22.0435 -0.510431 -2.62039 -2.5948 7.10543e-015 2.84217e-014 11.0246 -0.12884 -1.33483 -9.1245 -6.6564 -0.0554 -11.4121 -50.7298 -8.85677 -0.2447 -40.5954 -0.5145 -0.245265 38.7194 -8.08887 0.2447 -42.0479 -2.0602 0.68938 5.77786 0.401778 -0.3734 -10.4922 12.6407 -2.22314e-007 -5.44524e-006 -3.10104e-014 9.1245 -6.6564 -0.0554 5.68383 2.30415 12.8177 0.2447 -40.5954 -0.517 -0.649657 38.9719 -8.60415 -0.2447 -42.048 -2.0576 -3.85671 7.65438 -2.49832 0.3734 -10.4922 12.6407 0.419148 -54.0658 0.273002 
1.15078 88.5759 93.6204 1.73113 6.6735 9.68461 -1.77636e-015 9.9235 -1.2273 0.328962 3.3536 -1.65677 -0.0001 11.6454 -1.4223 1.99586 6.89604 -3.45743 0.0001 13.3602 -1.6265 2.00733 6.8867 -3.47046 1.77636e-015 15.0325 0.7929 -1.42341 -2.50838 -1.00258 0 10.3218 3.1424 -5.87354 -10.4402 0.315306 0.0002 18.4747 6.6364 -2.98177e-016 -1.59028e-015 -0 2.9479 7.6817 9.1207 -2.98177e-016 -1.59028e-015 -0 -2.9445 7.6817 9.1205 -2.98177e-016 -1.59028e-015 -0 6.1058 9.1104 0.7056 -10.7924 0.201734 2.40403 12.655 -0.2659 -2.6009 -38.1871 40.4871 -46.8784 27.4047 0 0 4.43279e-006 3.93223e-006 -15.7557 27.6145 0 7.10543e-015 4.45874 -13.3531 -5.23515 12.7755 0 0 0.0159763 -9.03612e-007 -0.00192795 3.614 0 0 -0.0160092 1.08658e-005 0.00194314 3.4598 0 0 -1.92623e-006 -1.30386e-005 1.46072e-005 3.7888 -2.167 3.0031 17.3887 3.38498 5.98719 3.6754 -2.122 2.122 1.59356 5.61382 21.0817 3.3944 -1.9597 1.9598 3.14971 0.475236 8.1848 12.2666 -0.2317 2.8221 -3.66684e-006 2.95452e-006 9.49118e-006 3.892 -1.42109e-014 0 -3.69419e-005 -2.23093e-006 -8.42047e-006 3.4152 0 0 -2.16977e-006 -3.06123e-006 3.64063e-006 12.147 0.0099 -2.2166 -3.66684e-006 2.95452e-006 9.49118e-006 3.6012 0 0 -3.24844e-005 -7.71645e-006 6.05701e-006 3.3073 0 0 -2.09109e-006 2.07194e-006 4.8136e-006 10.9082 -0.2264 -4.7258 0.509568 0.0180318 4.05429 4.1367 0 -1.42109e-014 -0.509594 0.0180344 -4.05428 2.5948 0 0 -1.60766e-006 -3.95716e-007 3.02371e-006 -6.1057 9.1105 0.7056 11.8522 0.227299 -2.43767 -12.655 -0.266 -2.6009 -11.4893 31.2676 92.5485 -27.4047 0 4.44089e-015 -7.01467e-007 1.46146e-005 95.4961 -27.6145 -2.84217e-014 1.42109e-014 24.9393 -36.0143 5.4797 -12.7755 0 0 30.3361 -0.956511 -3.52738 -3.614 0 0 22.0435 -0.510449 -2.62041 -3.4598 0 1.42109e-014 11.0246 -0.128824 -1.33483 -3.7888 -2.167 3.0031 -12.6474 -9.88241 -3.99696 -3.6754 -2.122 2.122 -3.47198 -1.14869 -26.5434 -3.3944 -1.9597 1.9598 -3.52349 -4.09633 -9.09948 -12.2666 -0.2317 2.8221 30.3361 -0.956511 -3.52738 -3.892 1.42109e-014 -1.42109e-014 22.0435 -0.510449 -2.62041 -3.4152 -7.10543e-015 1.42109e-014 11.0246 -0.128824 -1.33483 -12.147 0.0099 -2.2166 30.3361 -0.956511 -3.52738 -3.6012 0 1.42109e-014 22.0435 -0.510449 -2.62041 -3.3073 7.10543e-015 0 11.0246 -0.128824 -1.33483 -10.9082 -0.2264 -4.7258 30.3361 -0.956511 -3.52738 -4.1367 1.42109e-014 0 22.0435 -0.510449 -2.62041 -2.5948 0 0 11.0246 -0.128824 -1.33483 -9.1245 -6.6564 -0.0554 -9.17638 -51.1804 -6.92704 -0.2447 -40.5954 -0.5145 -0.323248 44.3937 -8.83135 0.2447 -42.0479 -2.0602 1.47664 1.04049 0.40417 -0.3734 -10.4922 12.6407 1.31169e-006 -0.00258737 -1.27902e-006 9.1245 -6.6564 -0.0554 7.73128 1.50338 12.4893 0.2447 -40.5954 -0.517 -0.589037 41.3884 -8.85304 -0.2447 -42.048 -2.0576 -6.5578 16.6724 -0.291154 0.3734 -10.4922 12.6407 -0.435533 -62.3485 -0.335509 
